<?xml version="1.0" encoding="UTF-8" standalone="no" ?>
<!DOCTYPE svg PUBLIC "-//W3C//DTD SVG 1.1//EN" "http://www.w3.org/Graphics/SVG/1.1/DTD/svg11.dtd">
<svg
  width="100%"
  height="100%"
  viewBox="0 0 2689 2689"
  version="1.1"
  xmlns="http://www.w3.org/2000/svg"
  xmlns:xlink="http://www.w3.org/1999/xlink"
  xml:space="preserve"
  xmlns:serif="http://www.serif.com/"
  style="fill-rule:evenodd;clip-rule:evenodd;stroke-linejoin:round;stroke-miterlimit:2;"
>
    <g transform="matrix(1,0,0,1,-427.448,-427.404)">
    <g transform="matrix(0.815588,0,0,0.88515,159.201,-132.406)">
      <ellipse id="Background" cx="1977.04" cy="2151.12" rx="1647.93" ry="1518.67" style="fill:white;" />
    </g>
    <g transform="matrix(0.825877,0,0,0.846393,342.822,292.535)">
      <g id="Aperature">
        <g transform="matrix(1,0,0,1,-11.8823,-6.38206)">
          <path
            d="M1066.56,1099.82L2168.69,1099.82L2320.8,1358.32L1562.18,2149.59L2507.14,2149.59L2337.51,2408.06L1339.16,2408.06L1194.19,2145.03L1946.4,1358.32L976.786,1358.32C976.786,1358.32 1062.39,1099.82 1066.56,1099.82Z"
            style="fill:rgb(51,51,51);"
          />
        </g>
        <g id="Aperture">
          <g transform="matrix(-1,1.22465e-16,-1.22465e-16,-1,3507.87,3521.32)">
            <path
              d="M539.683,2775.37L401.909,2538.17L2056.47,2538.17L1604.38,3321.22L1180.6,3228.97L952.273,3104.73L741.27,2960.33L539.683,2775.37Z"
              style="fill:rgb(51,51,51);"
            />
          </g>
          <g transform="matrix(-0.5,0.866025,-0.866025,-0.5,4149.86,1111.95)">
            <path
              d="M542.401,2751.24L387.241,2511.22L2095.18,2514.79L1582.59,3349.37L1252.34,3278.06L941.311,3115.23L754.928,2976.35L542.401,2751.24Z"
              style="fill:rgb(51,51,51);"
            />
          </g>
          <g transform="matrix(0.5,0.866025,-0.866025,0.5,2384.65,-633.43)">
            <path
              d="M512.32,2774.86L332.205,2502.51L2052.76,2544.61L1594.05,3339.11L1266.75,3290.51L912.79,3143.63L691.66,2987.38L512.32,2774.86Z"
              style="fill:rgb(51,51,51);"
            />
          </g>
          <g transform="matrix(1,0,0,1.03424,67.6352,-112.583)">
            <path
              d="M476.762,2807.21L316.898,2538.17L2056.47,2538.17L1629.63,3283.73L1206.82,3225.03L932.61,3117.97L718.986,3002.14L476.762,2807.21Z"
              style="fill:rgb(51,51,51);"
            />
          </g>
          <g transform="matrix(0.530436,-0.918742,0.885976,0.511519,-738.932,2475.1)">
            <path
              d="M621.062,2735.25L520.959,2562.69L2070.01,2538.34L1642.11,3302.39L1236.3,3181.45L1020.05,3071.46L829.666,2940.63L621.062,2735.25Z"
              style="fill:rgb(51,51,51);"
            />
          </g>
          <g transform="matrix(-0.5,-0.866025,0.866025,-0.5,1115.71,4142.53)">
            <path
              d="M588.937,2765.26L441.52,2538.17L2056.47,2538.17L1613.58,3305.28L1197.6,3208.2L982.358,3089.65L774.497,2943.67L588.937,2765.26Z"
              style="fill:rgb(51,51,51);"
            />
          </g>
        </g>
      </g>
    </g>
    <g transform="matrix(8841.31,0,0,13880.1,429.524,432.119)">
      <path
        id="Aperature-Wrapper"
        serif:id="Aperature Wrapper"
        d="M0.152,-0C0.236,-0 0.304,0.043 0.304,0.097C0.304,0.15 0.236,0.193 0.152,0.193C0.068,0.193 -0,0.15 -0,0.097C-0,0.043 0.068,-0 0.152,-0ZM0.152,0.006C0.073,0.006 0.01,0.047 0.01,0.097C0.01,0.146 0.073,0.187 0.152,0.187C0.23,0.187 0.294,0.146 0.294,0.097C0.294,0.047 0.23,0.006 0.152,0.006Z"
        style="fill:white;"
      />
    </g>
  </g>
</svg>
