<?xml version="1.0" encoding="UTF-8" standalone="no"?>
<!DOCTYPE svg PUBLIC "-//W3C//DTD SVG 1.1//EN" "http://www.w3.org/Graphics/SVG/1.1/DTD/svg11.dtd">
<svg width="100%" height="100%" viewBox="0 0 3508 3508" version="1.1" xmlns="http://www.w3.org/2000/svg" xmlns:xlink="http://www.w3.org/1999/xlink" xml:space="preserve" xmlns:serif="http://www.serif.com/" style="fill-rule:evenodd;clip-rule:evenodd;stroke-linejoin:round;stroke-miterlimit:2;">
    <g>
        <g id="BG" transform="matrix(3.61896,0,0,3.61896,12241.8,-9891.73)">
            <circle cx="-2898.03" cy="3217.96" r="474.808" style="fill:rgb(242,230,206);"/>
        </g>
        <g>
            <path d="M1066.56,1099.82L2168.69,1099.82L2320.8,1358.32L1562.18,2149.59L2507.14,2149.59L2337.51,2408.06L1339.16,2408.06L1189.83,2149.59L1946.4,1358.32L976.786,1358.32C976.786,1358.32 1062.39,1099.82 1066.56,1099.82Z" style="fill:rgb(33,33,38);"/>
            <g id="Aperture">
                <g transform="matrix(-1,1.22465e-16,-1.22465e-16,-1,3507.87,3507.87)">
                    <path d="M229.008,2538.17L2056.47,2538.17L1529.69,3450.59L1129.48,3333.86L870.999,3205.78L648.199,3065.21L437.435,2840.6L229.008,2538.17Z" style="fill:rgb(33,33,38);"/>
                </g>
                <g transform="matrix(-0.5,0.866025,-0.866025,-0.5,4149.86,1111.95)">
                    <path d="M229.008,2538.17L2056.47,2538.17L1529.69,3450.59L1129.48,3333.86L870.999,3205.78L648.199,3065.21L437.435,2840.6L229.008,2538.17Z" style="fill:rgb(33,33,38);"/>
                </g>
                <g transform="matrix(0.5,0.866025,-0.866025,0.5,2395.92,-641.986)">
                    <path d="M229.008,2538.17L2056.47,2538.17L1529.69,3450.59L1129.48,3333.86L870.999,3205.78L648.199,3065.21L437.435,2840.6L229.008,2538.17Z" style="fill:rgb(33,33,38);"/>
                </g>
                <path d="M229.008,2538.17L2056.47,2538.17L1567.96,3391.44L1129.48,3333.86L870.999,3205.78L648.199,3065.21L437.435,2840.6L229.008,2538.17Z" style="fill:rgb(33,33,38);"/>
                <g transform="matrix(0.5,-0.866025,0.866025,0.5,-641.986,2395.92)">
                    <path d="M331.792,2565.71L2056.47,2538.17L1552.12,3411.74L1174.21,3299.99L956.774,3180.37L752.521,3037.13L487.087,2834.69L331.792,2565.71Z" style="fill:rgb(33,33,38);"/>
                </g>
                <g transform="matrix(-0.5,-0.866025,0.866025,-0.5,1111.95,4149.86)">
                    <path d="M280.625,2538.17L2056.47,2538.17L1529.69,3450.59L1129.48,3333.86L890.137,3172.63L676.036,3017L477.838,2829.78L280.625,2538.17Z" style="fill:rgb(33,33,38);"/>
                </g>
            </g>
        </g>
        <g>
            <path d="M1066.56,1099.82L2168.69,1099.82L2320.8,1358.32L1562.18,2149.59L2507.14,2149.59L2337.51,2408.06L1339.16,2408.06L1189.83,2149.59L1946.4,1358.32L976.786,1358.32C976.786,1358.32 1062.39,1099.82 1066.56,1099.82Z" style="fill:rgb(33,33,38);"/>
            <g id="Aperture1" serif:id="Aperture">
                <g transform="matrix(-1,1.22465e-16,-1.22465e-16,-1,3507.87,3507.87)">
                    <path d="M229.008,2538.17L2056.47,2538.17L1529.69,3450.59L1129.48,3333.86L870.999,3205.78L648.199,3065.21L437.435,2840.6L229.008,2538.17Z" style="fill:rgb(33,33,38);"/>
                </g>
                <g transform="matrix(-0.5,0.866025,-0.866025,-0.5,4149.86,1111.95)">
                    <path d="M229.008,2538.17L2056.47,2538.17L1529.69,3450.59L1129.48,3333.86L870.999,3205.78L648.199,3065.21L437.435,2840.6L229.008,2538.17Z" style="fill:rgb(33,33,38);"/>
                </g>
                <g transform="matrix(0.5,0.866025,-0.866025,0.5,2395.92,-641.986)">
                    <path d="M229.008,2538.17L2056.47,2538.17L1529.69,3450.59L1129.48,3333.86L870.999,3205.78L648.199,3065.21L437.435,2840.6L229.008,2538.17Z" style="fill:rgb(33,33,38);"/>
                </g>
                <path d="M229.008,2538.17L2056.47,2538.17L1567.96,3391.44L1129.48,3333.86L870.999,3205.78L648.199,3065.21L437.435,2840.6L229.008,2538.17Z" style="fill:rgb(33,33,38);"/>
                <g transform="matrix(0.5,-0.866025,0.866025,0.5,-641.986,2395.92)">
                    <path d="M331.792,2565.71L2056.47,2538.17L1552.12,3411.74L1174.21,3299.99L956.774,3180.37L752.521,3037.13L487.087,2834.69L331.792,2565.71Z" style="fill:rgb(33,33,38);"/>
                </g>
                <g transform="matrix(-0.5,-0.866025,0.866025,-0.5,1111.95,4149.86)">
                    <path d="M280.625,2538.17L2056.47,2538.17L1529.69,3450.59L1129.48,3333.86L890.137,3172.63L676.036,3017L477.838,2829.78L280.625,2538.17Z" style="fill:rgb(33,33,38);"/>
                </g>
            </g>
        </g>
        <g id="BG1" serif:id="BG" transform="matrix(3.69399,0,0,3.69399,12459.2,-10133.2)">
            <path d="M-2898.03,2743.15C-2635.98,2743.15 -2423.22,2955.9 -2423.22,3217.96C-2423.22,3480.01 -2635.98,3692.77 -2898.03,3692.77C-3160.08,3692.77 -3372.84,3480.01 -3372.84,3217.96C-3372.84,2955.9 -3160.08,2743.15 -2898.03,2743.15ZM-2898.03,2794.12C-2664.11,2794.12 -2474.19,2984.03 -2474.19,3217.96C-2474.19,3451.88 -2664.11,3641.8 -2898.03,3641.8C-3131.95,3641.8 -3321.87,3451.88 -3321.87,3217.96C-3321.87,2984.03 -3131.95,2794.12 -2898.03,2794.12Z" style="fill:rgb(89,21,21);"/>
            <path d="M-2898.03,2743.15C-2635.98,2743.15 -2423.22,2955.9 -2423.22,3217.96C-2423.22,3480.01 -2635.98,3692.77 -2898.03,3692.77C-3160.08,3692.77 -3372.84,3480.01 -3372.84,3217.96C-3372.84,2955.9 -3160.08,2743.15 -2898.03,2743.15ZM-2898.03,2794.12C-2664.11,2794.12 -2474.19,2984.03 -2474.19,3217.96C-2474.19,3451.88 -2664.11,3641.8 -2898.03,3641.8C-3131.95,3641.8 -3321.87,3451.88 -3321.87,3217.96C-3321.87,2984.03 -3131.95,2794.12 -2898.03,2794.12Z" style="fill:rgb(89,21,21);"/>
        </g>
    </g>
    <g id="BG2" serif:id="BG" transform="matrix(3.69399,0,0,3.69399,12459.2,-10133.2)">
        <path d="M-2898.03,2743.15C-2635.98,2743.15 -2423.22,2955.9 -2423.22,3217.96C-2423.22,3480.01 -2635.98,3692.77 -2898.03,3692.77C-3160.08,3692.77 -3372.84,3480.01 -3372.84,3217.96C-3372.84,2955.9 -3160.08,2743.15 -2898.03,2743.15ZM-2898.03,2770.48C-2651.06,2770.48 -2450.55,2970.99 -2450.55,3217.96C-2450.55,3464.93 -2651.06,3665.43 -2898.03,3665.43C-3145,3665.43 -3345.51,3464.93 -3345.51,3217.96C-3345.51,2970.99 -3145,2770.48 -2898.03,2770.48Z" style="fill:rgb(89,21,21);"/>
    </g>
    <g transform="matrix(1.58658,0,0,1.58658,217.629,-1591.69)">
        <path d="M493.027,2632.39L583.316,2632.39L583.316,2674.52L537.656,2674.52L537.656,2710.46L577.867,2710.46L577.867,2751.26L537.656,2751.26L537.656,2829.03L493.027,2829.03L493.027,2632.39Z" style="fill:rgb(217,37,37);fill-rule:nonzero;stroke:rgb(217,37,37);stroke-width:0.63px;"/>
        <path d="M676.552,2833.89C652.789,2833.89 634.672,2824.78 622.201,2806.56C609.731,2788.35 603.495,2762.06 603.495,2727.69C603.495,2695.97 609.755,2671.25 622.275,2653.53C634.795,2635.8 652.249,2626.94 674.637,2626.94C698.498,2626.94 716.738,2635.83 729.356,2653.6C741.974,2671.37 748.283,2696.76 748.283,2729.75C748.283,2762.74 742.072,2788.35 729.651,2806.56C717.229,2824.78 699.529,2833.89 676.552,2833.89ZM674.932,2671.57C658.828,2671.57 650.776,2690.47 650.776,2728.28C650.776,2752.63 652.813,2768.88 656.889,2777.03C660.964,2785.18 666.88,2789.26 674.637,2789.26C682.984,2789.26 689.391,2785.18 693.859,2777.03C698.327,2768.88 700.56,2752.93 700.56,2729.16C700.56,2690.77 692.018,2671.57 674.932,2671.57Z" style="fill:rgb(217,37,37);fill-rule:nonzero;stroke:rgb(217,37,37);stroke-width:0.63px;"/>
        <path d="M764.043,2632.39L870.535,2632.39L870.535,2677.32L839.751,2677.32L839.751,2829.03L794.533,2829.03L794.533,2677.32L764.043,2677.32L764.043,2632.39Z" style="fill:rgb(217,37,37);fill-rule:nonzero;stroke:rgb(217,37,37);stroke-width:0.63px;"/>
        <path d="M959.646,2833.89C935.883,2833.89 917.767,2824.78 905.296,2806.56C892.825,2788.35 886.59,2762.06 886.59,2727.69C886.59,2695.97 892.85,2671.25 905.369,2653.53C917.889,2635.8 935.343,2626.94 957.732,2626.94C981.593,2626.94 999.833,2635.83 1012.45,2653.6C1025.07,2671.37 1031.38,2696.76 1031.38,2729.75C1031.38,2762.74 1025.17,2788.35 1012.75,2806.56C1000.32,2824.78 982.624,2833.89 959.646,2833.89ZM958.026,2671.57C941.922,2671.57 933.87,2690.47 933.87,2728.28C933.87,2752.63 935.908,2768.88 939.983,2777.03C944.058,2785.18 949.974,2789.26 957.732,2789.26C966.078,2789.26 972.485,2785.18 976.953,2777.03C981.421,2768.88 983.655,2752.93 983.655,2729.16C983.655,2690.77 975.112,2671.57 958.026,2671.57Z" style="fill:rgb(217,37,37);fill-rule:nonzero;stroke:rgb(217,37,37);stroke-width:0.63px;"/>
    </g>
</svg>
